<mxfile host="app.diagrams.net" agent="Mozilla/5.0 (Windows NT 10.0; Win64; x64) AppleWebKit/537.36 (KHTML, like Gecko) Chrome/127.0.0.0 Safari/537.36" version="24.7.7" pages="2">
  <diagram name="第 1 页" id="Fo5XTk4oIRt2RPCHIWf6">
    <mxGraphModel dx="1434" dy="772" grid="1" gridSize="10" guides="1" tooltips="1" connect="1" arrows="1" fold="1" page="1" pageScale="1" pageWidth="827" pageHeight="1169" math="0" shadow="0">
      <root>
        <mxCell id="0" />
        <mxCell id="1" parent="0" />
        <mxCell id="fl5RrSjxe9A3fTXHzW9J-6" style="edgeStyle=orthogonalEdgeStyle;rounded=0;orthogonalLoop=1;jettySize=auto;html=1;entryX=0.5;entryY=0;entryDx=0;entryDy=0;" edge="1" parent="1" source="fl5RrSjxe9A3fTXHzW9J-1" target="fl5RrSjxe9A3fTXHzW9J-2">
          <mxGeometry relative="1" as="geometry" />
        </mxCell>
        <mxCell id="fl5RrSjxe9A3fTXHzW9J-1" value="本地代码开发" style="rounded=1;whiteSpace=wrap;html=1;" vertex="1" parent="1">
          <mxGeometry x="250" y="120" width="120" height="60" as="geometry" />
        </mxCell>
        <mxCell id="fl5RrSjxe9A3fTXHzW9J-7" style="edgeStyle=orthogonalEdgeStyle;rounded=0;orthogonalLoop=1;jettySize=auto;html=1;entryX=0.5;entryY=0;entryDx=0;entryDy=0;" edge="1" parent="1" source="fl5RrSjxe9A3fTXHzW9J-2" target="fl5RrSjxe9A3fTXHzW9J-3">
          <mxGeometry relative="1" as="geometry" />
        </mxCell>
        <mxCell id="fl5RrSjxe9A3fTXHzW9J-2" value="Git 提交到远程" style="rounded=1;whiteSpace=wrap;html=1;" vertex="1" parent="1">
          <mxGeometry x="250" y="235" width="120" height="60" as="geometry" />
        </mxCell>
        <mxCell id="fl5RrSjxe9A3fTXHzW9J-8" style="edgeStyle=orthogonalEdgeStyle;rounded=0;orthogonalLoop=1;jettySize=auto;html=1;entryX=0;entryY=0.5;entryDx=0;entryDy=0;" edge="1" parent="1" source="fl5RrSjxe9A3fTXHzW9J-3" target="fl5RrSjxe9A3fTXHzW9J-4">
          <mxGeometry relative="1" as="geometry" />
        </mxCell>
        <mxCell id="fl5RrSjxe9A3fTXHzW9J-3" value="蓝鲸构建" style="rounded=1;whiteSpace=wrap;html=1;" vertex="1" parent="1">
          <mxGeometry x="250" y="350" width="120" height="60" as="geometry" />
        </mxCell>
        <mxCell id="fl5RrSjxe9A3fTXHzW9J-9" style="edgeStyle=orthogonalEdgeStyle;rounded=0;orthogonalLoop=1;jettySize=auto;html=1;entryX=0.5;entryY=1;entryDx=0;entryDy=0;" edge="1" parent="1" source="fl5RrSjxe9A3fTXHzW9J-4" target="fl5RrSjxe9A3fTXHzW9J-5">
          <mxGeometry relative="1" as="geometry" />
        </mxCell>
        <mxCell id="fl5RrSjxe9A3fTXHzW9J-4" value="Web Sonar 查看结果" style="rounded=1;whiteSpace=wrap;html=1;" vertex="1" parent="1">
          <mxGeometry x="420" y="350" width="120" height="60" as="geometry" />
        </mxCell>
        <mxCell id="fl5RrSjxe9A3fTXHzW9J-10" style="edgeStyle=orthogonalEdgeStyle;rounded=0;orthogonalLoop=1;jettySize=auto;html=1;entryX=1;entryY=0.5;entryDx=0;entryDy=0;" edge="1" parent="1" source="fl5RrSjxe9A3fTXHzW9J-5" target="fl5RrSjxe9A3fTXHzW9J-2">
          <mxGeometry relative="1" as="geometry" />
        </mxCell>
        <mxCell id="fl5RrSjxe9A3fTXHzW9J-5" value="修复异常" style="rounded=1;whiteSpace=wrap;html=1;" vertex="1" parent="1">
          <mxGeometry x="420" y="235" width="120" height="60" as="geometry" />
        </mxCell>
        <mxCell id="fl5RrSjxe9A3fTXHzW9J-11" value="" style="rounded=0;whiteSpace=wrap;html=1;fillColor=none;dashed=1;dashPattern=8 8;" vertex="1" parent="1">
          <mxGeometry x="230" y="210" width="340" height="220" as="geometry" />
        </mxCell>
      </root>
    </mxGraphModel>
  </diagram>
  <diagram id="Kvukm1d0fSmJwqX5rWEl" name="第 2 页">
    <mxGraphModel dx="1238" dy="655" grid="1" gridSize="10" guides="1" tooltips="1" connect="1" arrows="1" fold="1" page="1" pageScale="1" pageWidth="827" pageHeight="1169" math="0" shadow="0">
      <root>
        <mxCell id="0" />
        <mxCell id="1" parent="0" />
        <mxCell id="_Re9ZVopH4qKnImNGCw0-1" value="" style="rounded=1;whiteSpace=wrap;html=1;sketch=1;hachureGap=4;jiggle=2;curveFitting=1;fontFamily=Architects Daughter;fontSource=https%3A%2F%2Ffonts.googleapis.com%2Fcss%3Ffamily%3DArchitects%2BDaughter;fillColor=none;" vertex="1" parent="1">
          <mxGeometry x="149" y="210" width="590" height="50" as="geometry" />
        </mxCell>
        <mxCell id="_Re9ZVopH4qKnImNGCw0-2" value="表格内容" style="rounded=1;whiteSpace=wrap;html=1;sketch=1;hachureGap=4;jiggle=2;curveFitting=1;fontFamily=Architects Daughter;fontSource=https%3A%2F%2Ffonts.googleapis.com%2Fcss%3Ffamily%3DArchitects%2BDaughter;" vertex="1" parent="1">
          <mxGeometry x="149" y="270" width="590" height="110" as="geometry" />
        </mxCell>
        <mxCell id="_Re9ZVopH4qKnImNGCw0-3" value="分页器" style="rounded=1;whiteSpace=wrap;html=1;sketch=1;hachureGap=4;jiggle=2;curveFitting=1;fontFamily=Architects Daughter;fontSource=https%3A%2F%2Ffonts.googleapis.com%2Fcss%3Ffamily%3DArchitects%2BDaughter;" vertex="1" parent="1">
          <mxGeometry x="149" y="390" width="590" height="30" as="geometry" />
        </mxCell>
        <mxCell id="_Re9ZVopH4qKnImNGCw0-4" value="字段过滤器" style="rounded=1;whiteSpace=wrap;html=1;sketch=1;hachureGap=4;jiggle=2;curveFitting=1;fontFamily=Architects Daughter;fontSource=https%3A%2F%2Ffonts.googleapis.com%2Fcss%3Ffamily%3DArchitects%2BDaughter;" vertex="1" parent="1">
          <mxGeometry x="579" y="220" width="150" height="30" as="geometry" />
        </mxCell>
        <mxCell id="_Re9ZVopH4qKnImNGCw0-5" value="slot#top-left" style="rounded=1;whiteSpace=wrap;html=1;sketch=1;hachureGap=4;jiggle=2;curveFitting=1;fontFamily=Architects Daughter;fontSource=https%3A%2F%2Ffonts.googleapis.com%2Fcss%3Ffamily%3DArchitects%2BDaughter;" vertex="1" parent="1">
          <mxGeometry x="159" y="220" width="400" height="30" as="geometry" />
        </mxCell>
        <mxCell id="_Re9ZVopH4qKnImNGCw0-6" value="头部" style="text;html=1;align=left;verticalAlign=middle;resizable=0;points=[];autosize=1;strokeColor=none;fillColor=none;fontFamily=Architects Daughter;fontSource=https%3A%2F%2Ffonts.googleapis.com%2Fcss%3Ffamily%3DArchitects%2BDaughter;fontStyle=1;fontSize=17;" vertex="1" parent="1">
          <mxGeometry x="89" y="220" width="60" height="30" as="geometry" />
        </mxCell>
        <mxCell id="_Re9ZVopH4qKnImNGCw0-7" value="主体" style="text;html=1;align=left;verticalAlign=middle;resizable=0;points=[];autosize=1;strokeColor=none;fillColor=none;fontFamily=Architects Daughter;fontSource=https%3A%2F%2Ffonts.googleapis.com%2Fcss%3Ffamily%3DArchitects%2BDaughter;fontStyle=1;fontSize=17;" vertex="1" parent="1">
          <mxGeometry x="89" y="300" width="60" height="30" as="geometry" />
        </mxCell>
        <mxCell id="_Re9ZVopH4qKnImNGCw0-8" value="底部" style="text;html=1;align=left;verticalAlign=middle;resizable=0;points=[];autosize=1;strokeColor=none;fillColor=none;fontFamily=Architects Daughter;fontSource=https%3A%2F%2Ffonts.googleapis.com%2Fcss%3Ffamily%3DArchitects%2BDaughter;fontStyle=1;fontSize=17;" vertex="1" parent="1">
          <mxGeometry x="89" y="390" width="60" height="30" as="geometry" />
        </mxCell>
      </root>
    </mxGraphModel>
  </diagram>
</mxfile>
